<?xml version="1.0" encoding="iso-8859-1"?>
<!-- Generator: Adobe Illustrator 19.0.0, SVG Export Plug-In . SVG Version: 6.00 Build 0)  -->
<svg version="1.1" id="Layer_1" xmlns="http://www.w3.org/2000/svg" xmlns:xlink="http://www.w3.org/1999/xlink" x="0px" y="0px"
	 viewBox="0 0 496 496" style="enable-background:new 0 0 496 496;" width="200px" height="200px" xml:space="preserve">
<g>
	<g>
		<g>
			<path d="M416,216V40c0-22.056-17.944-40-40-40H40C17.944,0,0,17.944,0,40v232c0,22.056,17.944,40,40,40h80v32h-16v16h14.968
				c-6.776,6.904-12.304,15.024-16.24,24H0v48h32v16H0v48h144v-6.728c9.808,4.304,20.624,6.728,32,6.728c44.112,0,80-35.888,80-80
				c0-21.792-8.784-41.56-22.968-56H280v136h216V216H416z M32,480H16v-16h16V480z M32,416H16v-16h16V416z M64,480H48v-16h16V480z
				 M64,448H48v-16h16V448z M64,416H48v-16h16V416z M96,480H80v-16h16V480z M96,448H80v-16h16V448z M96,416H80v-16h16V416z M128,480
				h-16v-16v-0.208c4.552,6.08,9.936,11.48,16,16.056V480z M240,416c0,35.288-28.712,64-64,64c-35.288,0-64-28.712-64-64
				c0-35.288,28.712-64,64-64C211.288,352,240,380.712,240,416z M280,344h-69.36c-10.496-5.072-22.216-8-34.64-8
				c-12.416,0-24.144,2.928-34.64,8H136v-32h144V344z M280,296H40c-13.232,0-24-10.768-24-24v-8h264V296z M280,248H16V40
				c0-13.232,10.768-24,24-24h336c13.232,0,24,10.768,24,24v176H280V248z M480,480H296V296h184V480z M480,280H296v-48h184V280z"/>
			<path d="M352,312h-40v40h40V312z M336,336h-8v-8h8V336z"/>
			<path d="M408,312h-40v40h40V312z M392,336h-8v-8h8V336z"/>
			<path d="M464,312h-40v40h40V312z M448,336h-8v-8h8V336z"/>
			<path d="M352,368h-40v40h40V368z M336,392h-8v-8h8V392z"/>
			<path d="M408,368h-40v40h40V368z M392,392h-8v-8h8V392z"/>
			<path d="M464,368h-40v40h40V368z M448,392h-8v-8h8V392z"/>
			<path d="M352,424h-40v40h40V424z M336,448h-8v-8h8V448z"/>
			<path d="M408,424h-40v40h40V424z M392,448h-8v-8h8V448z"/>
			<path d="M464,424h-40v40h40V424z M448,448h-8v-8h8V448z"/>
			<path d="M168,392h16c4.416,0,8,3.584,8,8h16c0-13.232-10.768-24-24-24v-16h-16v16c-13.232,0-24,10.768-24,24s10.768,24,24,24h16
				c4.416,0,8,3.584,8,8c0,4.416-3.584,8-8,8h-16c-4.416,0-8-3.584-8-8h-16c0,13.232,10.768,24,24,24v16h16v-16
				c13.232,0,24-10.768,24-24s-10.768-24-24-24h-16c-4.416,0-8-3.584-8-8C160,395.584,163.584,392,168,392z"/>
			<path d="M184,200h48V88h-48V200z M200,104h16v80h-16V104z"/>
			<path d="M120,200h48v-80h-48V200z M136,136h16v48h-16V136z"/>
			<path d="M56,200h48v-48H56V200z M72,168h16v16H72V168z"/>
			<path d="M248,200h48v-96h-48V200z M264,120h16v64h-16V120z"/>
			<path d="M312,200h48V32h-48V200z M328,48h16v136h-16V48z"/>
		</g>
	</g>
</g>
<g>
</g>
<g>
</g>
<g>
</g>
<g>
</g>
<g>
</g>
<g>
</g>
<g>
</g>
<g>
</g>
<g>
</g>
<g>
</g>
<g>
</g>
<g>
</g>
<g>
</g>
<g>
</g>
<g>
</g>
</svg>
